<svg width="601" height="556" viewBox="0 0 601 556" fill="none" xmlns="http://www.w3.org/2000/svg">
<path d="M88.4025 509.822C205.671 571.025 395.786 571.025 513.054 509.822C630.322 448.619 630.308 349.397 513.054 288.194C395.8 226.991 205.671 226.991 88.4025 288.194C-28.8658 349.397 -28.8518 448.619 88.4025 509.822Z" fill="#F5F5F5"/>
<path d="M514.664 358.975C537.52 358.975 556.048 350.154 556.048 339.273C556.048 328.392 537.52 319.571 514.664 319.571C491.808 319.571 473.279 328.392 473.279 339.273C473.279 350.154 491.808 358.975 514.664 358.975Z" fill="#E6E6E6"/>
<path d="M87.6747 474.235C108.629 474.235 125.617 466.147 125.617 456.17C125.617 446.192 108.629 438.104 87.6747 438.104C66.72 438.104 49.7329 446.192 49.7329 456.17C49.7329 466.147 66.72 474.235 87.6747 474.235Z" fill="#E6E6E6"/>
<path d="M369.376 508.969C391.181 508.969 408.857 500.549 408.857 490.162C408.857 479.775 391.181 471.355 369.376 471.355C347.571 471.355 329.895 479.775 329.895 490.162C329.895 500.549 347.571 508.969 369.376 508.969Z" fill="#E6E6E6"/>
<path d="M173.411 418.975C195.216 418.975 212.892 410.555 212.892 400.168C212.892 389.782 195.216 381.361 173.411 381.361C151.606 381.361 133.93 389.782 133.93 400.168C133.93 410.555 151.606 418.975 173.411 418.975Z" fill="#E6E6E6"/>
<path d="M405.751 293.284C406.716 281.692 433.308 238.205 441.439 231.466C449.57 224.726 463.93 207.695 457.744 198.019C451.558 188.342 433.378 192.649 416.303 222.81C403.063 246.203 398.949 297.94 398.949 297.94L405.751 293.284Z" fill="#02897A"/>
<path d="M402.112 292.193H402C401.909 292.18 401.822 292.148 401.744 292.1C401.666 292.053 401.598 291.99 401.544 291.916C401.491 291.841 401.453 291.757 401.432 291.668C401.412 291.579 401.41 291.486 401.426 291.396C408.941 242.848 424.91 212.561 450.242 198.802C450.405 198.713 450.597 198.692 450.776 198.745C450.864 198.771 450.947 198.814 451.018 198.871C451.09 198.929 451.15 199.001 451.194 199.081C451.238 199.162 451.266 199.251 451.275 199.342C451.285 199.434 451.277 199.526 451.251 199.615C451.225 199.703 451.182 199.785 451.124 199.857C451.066 199.929 450.995 199.988 450.914 200.032C425.988 213.568 410.257 243.533 402.797 291.62C402.768 291.78 402.683 291.925 402.558 292.03C402.433 292.135 402.275 292.192 402.112 292.193V292.193Z" fill="white"/>
<path d="M408.424 237.045C408.424 237.045 429.767 200.186 447.443 183.309C457.24 173.954 463.258 167.928 462.726 160.852C462.334 155.483 457.87 152.616 448.269 154.979C429.137 159.678 418.878 179.044 412.272 200.731C407.584 216.001 408.424 237.045 408.424 237.045Z" fill="#37474F"/>
<path opacity="0.2" d="M408.424 237.045C408.424 237.045 429.767 200.186 447.443 183.309C457.24 173.954 463.258 167.928 462.726 160.852C462.334 155.483 457.87 152.616 448.269 154.979C429.137 159.678 418.878 179.044 412.272 200.731C407.584 216.001 408.424 237.045 408.424 237.045Z" fill="#00FFE3"/>
<path d="M410.901 230.99H410.803C410.618 230.959 410.452 230.857 410.342 230.705C410.232 230.553 410.187 230.364 410.215 230.179C417.815 182.274 446.701 164.236 455.378 159.845C455.544 159.763 455.735 159.748 455.911 159.806C456.087 159.864 456.232 159.988 456.316 160.153C456.359 160.234 456.385 160.324 456.393 160.415C456.401 160.507 456.39 160.599 456.361 160.687C456.333 160.774 456.287 160.855 456.226 160.924C456.165 160.994 456.091 161.05 456.008 161.09C447.485 165.411 419.102 183.141 411.601 230.403C411.574 230.568 411.488 230.719 411.36 230.826C411.231 230.934 411.068 230.992 410.901 230.99V230.99Z" fill="white"/>
<path d="M527.973 128.244L523.355 119.575L527.064 108.864V102.306L515.699 108.864V115.422L520.584 123.895C520.66 124.028 520.778 124.131 520.92 124.189L527.973 128.244Z" fill="#11B5E4"/>
<path opacity="0.1" d="M527.973 128.244L523.355 119.575L527.064 108.864V102.306L515.699 108.864V115.422L520.584 123.895C520.66 124.028 520.778 124.131 520.92 124.189L527.973 128.244Z" fill="black"/>
<path d="M501.606 87.5401L532.9 69.3624C533.957 68.8312 535.124 68.5545 536.307 68.5545C537.491 68.5545 538.658 68.8312 539.715 69.3624L542.514 70.9704C543.51 71.6143 544.339 72.4848 544.932 73.5105C545.526 74.5362 545.868 75.6879 545.929 76.8712V102.208C545.864 103.391 545.521 104.541 544.928 105.566C544.334 106.591 543.508 107.462 542.514 108.109L511.193 126.287C510.135 126.818 508.968 127.094 507.785 127.094C506.601 127.094 505.434 126.818 504.377 126.287L501.578 124.678C500.586 124.032 499.76 123.161 499.169 122.135C498.578 121.11 498.238 119.959 498.177 118.778V93.4129C498.249 92.2343 498.597 91.089 499.192 90.0691C499.788 89.0491 500.614 88.1829 501.606 87.5401V87.5401Z" fill="#11B5E4"/>
<path opacity="0.3" d="M501.606 87.5401L532.9 69.3624C533.957 68.8312 535.124 68.5545 536.307 68.5545C537.491 68.5545 538.658 68.8312 539.715 69.3624L542.514 70.9704C543.51 71.6143 544.339 72.4848 544.932 73.5105C545.526 74.5362 545.868 75.6879 545.929 76.8712V102.208C545.864 103.391 545.521 104.541 544.928 105.566C544.334 106.591 543.508 107.462 542.514 108.109L511.193 126.287C510.135 126.818 508.968 127.094 507.785 127.094C506.601 127.094 505.434 126.818 504.377 126.287L501.578 124.678C500.586 124.032 499.76 123.161 499.169 122.135C498.578 121.11 498.238 119.959 498.177 118.778V93.4129C498.249 92.2343 498.597 91.089 499.192 90.0691C499.788 89.0491 500.614 88.1829 501.606 87.5401V87.5401Z" fill="white"/>
<path d="M511.206 126.259C509.317 127.335 507.792 126.468 507.792 124.287V98.9501C507.857 97.7677 508.2 96.6172 508.793 95.592C509.386 94.5668 510.213 93.6957 511.206 93.0494L542.528 74.8717C544.418 73.781 545.943 74.6619 545.943 76.8432V102.18C545.878 103.363 545.535 104.513 544.942 105.538C544.348 106.563 543.522 107.435 542.528 108.081" fill="#11B5E4"/>
<path d="M498.205 118.75C498.266 119.932 498.606 121.082 499.197 122.107C499.788 123.133 500.614 124.004 501.606 124.651L504.405 126.259C505.365 126.74 506.417 127.013 507.49 127.059C508.564 127.105 509.635 126.922 510.633 126.524C509.037 127.139 507.834 126.231 507.834 124.287V98.9501C507.879 97.7641 508.226 96.6092 508.841 95.5942L499.241 90.0011C498.63 91.0174 498.288 92.1722 498.247 93.357L498.205 118.75Z" fill="#11B5E4"/>
<path opacity="0.1" d="M498.205 118.75C498.266 119.932 498.606 121.082 499.197 122.107C499.788 123.133 500.614 124.004 501.606 124.651L504.405 126.259C505.365 126.74 506.417 127.013 507.49 127.059C508.564 127.105 509.635 126.922 510.633 126.524C509.037 127.139 507.834 126.231 507.834 124.287V98.9501C507.879 97.7641 508.226 96.6092 508.841 95.5942L499.241 90.0011C498.63 91.0174 498.288 92.1722 498.247 93.357L498.205 118.75Z" fill="black"/>
<path d="M522.823 119.533L527.707 127.992C527.779 128.112 527.884 128.208 528.008 128.27C528.133 128.333 528.273 128.359 528.411 128.346C528.55 128.333 528.683 128.281 528.793 128.196C528.904 128.111 528.988 127.997 529.037 127.867L534.201 112.975V106.417L522.823 112.975V119.533Z" fill="#11B5E4"/>
<path d="M526.881 110.877L523.383 109.955C520.052 109.074 516.077 107.158 516.077 102.865C516.245 101.116 516.823 99.4314 517.764 97.947C518.705 96.4627 519.982 95.2208 521.493 94.3217C521.988 93.9678 522.57 93.7532 523.176 93.7003C523.783 93.6474 524.392 93.7581 524.941 94.021C525.491 94.2839 525.959 94.6892 526.298 95.1947C526.637 95.7001 526.833 96.2872 526.867 96.8946C527.217 94.098 529.485 89.7074 532.242 88.1134C535.237 86.3935 537.658 87.4142 537.658 90.4065C537.658 94.6853 533.697 101.201 530.366 105.927L526.881 110.877Z" fill="white"/>
<path d="M64.1903 194.788L95.5122 176.68C96.5676 176.143 97.7354 175.862 98.9201 175.862C100.105 175.862 101.273 176.143 102.328 176.68L105.127 178.275C106.117 178.923 106.94 179.795 107.531 180.82C108.122 181.845 108.463 182.994 108.528 184.175V209.512C108.463 210.693 108.122 211.842 107.531 212.867C106.94 213.892 106.117 214.764 105.127 215.413L73.8472 233.521C72.7893 234.059 71.6192 234.339 70.4323 234.339C69.2453 234.339 68.0752 234.059 67.0174 233.521L64.2183 231.927C63.2125 231.278 62.3757 230.399 61.777 229.364C61.1783 228.328 60.835 227.165 60.7754 225.97V200.689C60.8372 199.506 61.179 198.354 61.7726 197.328C62.3662 196.303 63.1948 195.432 64.1903 194.788V194.788Z" fill="#FF7800"/>
<path opacity="0.3" d="M64.1903 194.788L95.5122 176.68C96.5676 176.143 97.7354 175.862 98.9201 175.862C100.105 175.862 101.273 176.143 102.328 176.68L105.127 178.275C106.117 178.923 106.94 179.795 107.531 180.82C108.122 181.845 108.463 182.994 108.528 184.175V209.512C108.463 210.693 108.122 211.842 107.531 212.867C106.94 213.892 106.117 214.764 105.127 215.413L73.8472 233.521C72.7893 234.059 71.6192 234.339 70.4323 234.339C69.2453 234.339 68.0752 234.059 67.0174 233.521L64.2183 231.927C63.2125 231.278 62.3757 230.399 61.777 229.364C61.1783 228.328 60.835 227.165 60.7754 225.97V200.689C60.8372 199.506 61.179 198.354 61.7726 197.328C62.3662 196.303 63.1948 195.432 64.1903 194.788V194.788Z" fill="white"/>
<path d="M90.5438 235.521L85.9253 226.837L89.6481 216.126V209.568L78.2698 216.182V222.74L83.1682 231.13C83.2422 231.259 83.3548 231.362 83.4901 231.424V231.424L90.5438 235.521Z" fill="#FF7800"/>
<path opacity="0.1" d="M90.5438 235.521L85.9253 226.837L89.6481 216.126V209.568L78.2698 216.182V222.74L83.1682 231.13C83.2422 231.259 83.3548 231.362 83.4901 231.424V231.424L90.5438 235.521Z" fill="black"/>
<path d="M73.8472 233.521C71.9578 234.612 70.4323 233.731 70.4323 231.549V206.212C70.4974 205.032 70.8406 203.883 71.434 202.86C72.0274 201.837 72.8543 200.969 73.8472 200.326L105.183 182.148C107.058 181.071 108.584 181.952 108.584 184.12V209.456C108.519 210.637 108.178 211.787 107.587 212.812C106.996 213.836 106.173 214.708 105.183 215.357" fill="#FF7800"/>
<path d="M60.7754 225.97C60.8406 227.152 61.1837 228.303 61.777 229.328C62.3703 230.353 63.1971 231.224 64.1903 231.871L66.9894 233.465C67.9522 233.946 69.0054 234.219 70.0807 234.267C71.1559 234.315 72.2294 234.137 73.2314 233.744C71.6219 234.346 70.4323 233.437 70.4323 231.493V206.212C70.4734 205.028 70.8153 203.873 71.426 202.856L61.839 197.333C61.2235 198.348 60.8767 199.503 60.8314 200.689L60.7754 225.97Z" fill="#FF7800"/>
<path opacity="0.1" d="M60.7754 225.97C60.8406 227.152 61.1837 228.303 61.777 229.328C62.3703 230.353 63.1971 231.224 64.1903 231.871L66.9894 233.465C67.9522 233.946 69.0054 234.219 70.0807 234.267C71.1559 234.315 72.2294 234.137 73.2314 233.744C71.6219 234.346 70.4323 233.437 70.4323 231.493V206.212C70.4734 205.028 70.8153 203.873 71.426 202.856L61.839 197.333C61.2235 198.348 60.8767 199.503 60.8314 200.689L60.7754 225.97Z" fill="black"/>
<path d="M85.4075 226.795L90.2919 235.185C90.3619 235.305 90.4649 235.402 90.5886 235.466C90.7123 235.529 90.8516 235.556 90.99 235.542C91.1284 235.529 91.2601 235.477 91.3695 235.391C91.4789 235.305 91.5615 235.19 91.6075 235.059L96.7718 220.167V213.609L85.4075 220.167V226.795Z" fill="#FF7800"/>
<path d="M77.6259 211.666C76.6817 212.273 75.8977 213.098 75.3398 214.071C74.782 215.045 74.4668 216.138 74.4209 217.259C74.4209 219.3 75.8204 220.055 77.6259 219.105C78.5636 218.491 79.3428 217.664 79.8998 216.692C80.4568 215.72 80.7758 214.63 80.8308 213.511C80.8448 211.47 79.4453 210.589 77.6259 211.666Z" fill="white"/>
<path d="M89.4521 204.828C88.5102 205.439 87.7271 206.264 87.1674 207.237C86.6077 208.209 86.2875 209.301 86.2332 210.421C86.2332 212.463 87.6327 213.288 89.4521 212.267C90.3899 211.653 91.1691 210.826 91.7261 209.854C92.283 208.882 92.6021 207.793 92.6571 206.674C92.6571 204.632 91.2156 203.807 89.4521 204.828Z" fill="white"/>
<path d="M101.264 198.004C100.327 198.618 99.5474 199.445 98.9904 200.417C98.4334 201.389 98.1143 202.479 98.0593 203.598C98.0593 205.639 99.4589 206.394 101.264 205.443C102.208 204.836 102.992 204.011 103.55 203.038C104.108 202.064 104.423 200.971 104.469 199.85C104.469 197.795 103.042 196.97 101.264 198.004Z" fill="white"/>
<path d="M396.317 11.2361L260.253 89.6798C258.49 90.8296 257.022 92.3782 255.969 94.2002C254.916 96.0222 254.308 98.0663 254.193 100.167V401.064C254.193 404.923 256.908 406.489 260.253 404.559L396.317 326.116C398.081 324.966 399.548 323.417 400.601 321.595C401.654 319.773 402.262 317.729 402.377 315.628V14.7318C402.377 10.8726 399.662 9.30648 396.317 11.2361Z" fill="#37474F"/>
<path d="M260.253 89.6798L396.318 11.236C399.313 9.51616 401.79 10.5928 402.28 13.5991C402.003 11.7077 401.329 9.89617 400.302 8.28382C399.274 6.67147 397.916 5.29486 396.318 4.24463L391.377 1.44806C389.499 0.496111 387.423 0 385.317 0C383.211 0 381.135 0.496111 379.257 1.44806L243.193 79.8498C241.403 80.9654 239.928 82.5203 238.91 84.3663L255.971 94.1543C256.995 92.3236 258.469 90.7837 260.253 89.6798V89.6798Z" fill="#455A64"/>
<path d="M237.133 391.22C237.245 393.321 237.853 395.366 238.906 397.188C239.959 399.01 241.428 400.559 243.193 401.707L248.133 404.503C249.841 405.364 251.712 405.852 253.623 405.936C255.533 406.021 257.44 405.699 259.217 404.993C256.418 406.069 254.193 404.461 254.193 401.008V100.125C254.263 98.0154 254.875 95.9593 255.971 94.1543L238.91 84.3663C237.818 86.1725 237.206 88.2279 237.133 90.337V391.22Z" fill="#263238"/>
<path d="M263.514 127.154L393.057 52.4714C395.058 51.3108 396.696 52.2476 396.696 54.5688V282.363C396.624 283.623 396.257 284.849 395.625 285.942C394.993 287.035 394.114 287.964 393.057 288.655L263.514 363.324C261.513 364.484 259.875 363.548 259.875 361.226V133.446C259.943 132.185 260.307 130.957 260.94 129.864C261.572 128.77 262.454 127.842 263.514 127.154Z" fill="#FAFAFA"/>
<path d="M326.914 62.1336C326.295 62.5396 325.78 63.0851 325.41 63.7263C325.041 64.3674 324.827 65.0863 324.786 65.825C324.786 67.2233 325.738 67.7407 326.914 67.0555C327.534 66.6511 328.05 66.106 328.42 65.4645C328.79 64.823 329.003 64.1033 329.041 63.364C329.041 62.0077 328.089 61.4624 326.914 62.1336Z" fill="#263238"/>
<path d="M306.774 83.7791C305.545 84.5957 304.525 85.6891 303.796 86.9714C303.066 88.2537 302.649 89.689 302.576 91.162C302.576 93.8747 304.479 94.9794 306.774 93.623C308.017 92.815 309.052 91.7252 309.794 90.4423C310.535 89.1593 310.963 87.7196 311.043 86.2401C311.043 83.5274 309.126 82.4228 306.774 83.7791Z" fill="#263238"/>
<path d="M317.201 82.8561C317.201 84.6739 318.6 85.359 320.238 84.3942L348.229 68.2161C349.093 67.6726 349.816 66.9339 350.341 66.0594C350.867 65.185 351.178 64.1994 351.252 63.1823C351.252 61.3785 349.852 60.6933 348.229 61.6581L320.238 77.8363C319.373 78.3759 318.647 79.1116 318.119 79.9837C317.592 80.8558 317.277 81.8399 317.201 82.8561Z" fill="#263238"/>
<path d="M246.566 136.159C247.561 136.803 248.39 137.673 248.983 138.699C249.577 139.725 249.919 140.876 249.98 142.06C249.98 144.227 248.455 145.108 246.566 144.031C245.575 143.38 244.751 142.506 244.16 141.478C243.569 140.451 243.228 139.299 243.165 138.116C243.193 135.949 244.69 135.082 246.566 136.159Z" fill="#37474F"/>
<path d="M246.566 162.404C247.559 163.051 248.385 163.922 248.979 164.947C249.572 165.972 249.915 167.123 249.98 168.305C249.98 170.486 248.455 171.367 246.566 170.277C245.59 169.632 244.778 168.77 244.192 167.758C243.607 166.746 243.265 165.612 243.193 164.446C243.193 162.209 244.69 161.328 246.566 162.404Z" fill="#37474F"/>
<path d="M245.516 136.676C246.509 137.322 247.336 138.193 247.929 139.219C248.522 140.244 248.866 141.394 248.931 142.577C248.931 144.758 247.405 145.639 245.516 144.548C244.524 143.9 243.699 143.029 243.106 142.004C242.512 140.979 242.168 139.829 242.101 138.647C242.101 136.48 243.64 135.599 245.516 136.676Z" fill="#455A64"/>
<path d="M245.516 162.936C246.509 163.582 247.336 164.453 247.929 165.478C248.522 166.504 248.866 167.654 248.931 168.837C248.931 171.018 247.405 171.899 245.516 170.808C244.524 170.16 243.699 169.289 243.106 168.264C242.512 167.239 242.168 166.089 242.101 164.907C242.101 162.726 243.64 161.845 245.516 162.936Z" fill="#455A64"/>
<path d="M328.285 336.043C325.839 337.639 323.804 339.789 322.345 342.318C320.886 344.847 320.044 347.685 319.888 350.599C319.888 355.969 323.653 358.136 328.285 355.465C330.732 353.866 332.767 351.714 334.226 349.183C335.685 346.651 336.526 343.812 336.683 340.895C336.697 335.526 332.932 333.359 328.285 336.043Z" fill="#263238"/>
<path d="M290.372 360.08C289.182 360.08 289.056 358.682 289.056 358.178V130.398C289.129 129.26 289.464 128.155 290.035 127.168C290.605 126.181 291.396 125.339 292.345 124.707L421.887 50.0245C422.274 49.7934 422.711 49.6591 423.161 49.6329C424.351 49.6329 424.477 50.9473 424.477 51.5206V279.315C424.404 280.451 424.07 281.554 423.499 282.539C422.929 283.524 422.137 284.364 421.188 284.992L291.645 359.674C291.263 359.917 290.824 360.057 290.372 360.08V360.08Z" fill="white" stroke="#141414" stroke-miterlimit="10"/>
<path d="M423.161 50.3321C423.693 50.3321 423.777 51.0732 423.777 51.5207V279.315C423.706 280.329 423.405 281.313 422.895 282.193C422.386 283.073 421.682 283.824 420.838 284.391L291.295 359.073C291.017 359.249 290.7 359.354 290.372 359.381C289.84 359.381 289.756 358.626 289.756 358.178V130.398C289.826 129.384 290.128 128.4 290.637 127.52C291.146 126.64 291.85 125.889 292.695 125.322L422.237 50.6397C422.513 50.4583 422.831 50.3523 423.161 50.3321V50.3321ZM423.161 48.9338C422.586 48.953 422.027 49.1217 421.537 49.4232L291.995 124.106C290.935 124.794 290.053 125.722 289.421 126.816C288.788 127.909 288.423 129.137 288.356 130.398V358.178C288.356 359.828 289.182 360.779 290.372 360.779C290.947 360.754 291.507 360.581 291.995 360.276L421.537 285.607C422.597 284.918 423.478 283.99 424.11 282.896C424.743 281.803 425.108 280.576 425.176 279.315V51.5207C425.176 49.8847 424.35 48.9338 423.161 48.9338V48.9338Z" fill="#37474F" stroke="#141414" stroke-miterlimit="10"/>
<path d="M425.134 51.5207C425.134 49.1995 423.511 48.2627 421.495 49.4233L291.953 124.106C290.893 124.794 290.011 125.722 289.379 126.816C288.746 127.909 288.381 129.137 288.314 130.398V149.065L425.134 70.1878V51.5207Z" fill="#37474F"/>
<path opacity="0.1" d="M425.134 51.5207C425.134 49.1995 423.511 48.2627 421.495 49.4233L291.953 124.106C290.893 124.794 290.011 125.722 289.379 126.816C288.746 127.909 288.381 129.137 288.314 130.398V149.065L425.134 70.1878V51.5207Z" fill="black"/>
<path d="M302.632 128.412C302.401 128.325 302.153 128.296 301.909 128.328C301.665 128.36 301.432 128.451 301.232 128.594C300.512 129.071 299.913 129.708 299.481 130.455C299.049 131.203 298.795 132.039 298.741 132.901C298.706 133.148 298.738 133.401 298.834 133.632C298.93 133.864 299.086 134.065 299.287 134.215C299.516 134.309 299.767 134.341 300.013 134.307C300.259 134.272 300.491 134.173 300.686 134.019C301.401 133.542 301.997 132.906 302.427 132.162C302.856 131.417 303.108 130.584 303.163 129.727C303.2 129.48 303.17 129.228 303.077 128.997C302.983 128.766 302.829 128.564 302.632 128.412Z" fill="white"/>
<path d="M305.585 123.644L305.277 123.826V123.197C305.277 122.316 304.661 121.952 303.877 122.4L297.999 125.784C297.595 126.045 297.258 126.397 297.015 126.813C296.772 127.228 296.629 127.694 296.599 128.175V128.818L296.278 129C295.74 129.348 295.293 129.819 294.972 130.373C294.651 130.927 294.465 131.549 294.43 132.188V137.879C294.43 139.053 295.256 139.543 296.278 138.955L305.557 133.6C306.095 133.249 306.543 132.776 306.864 132.22C307.185 131.663 307.37 131.039 307.404 130.398V124.679C307.432 123.532 306.606 123.057 305.585 123.644ZM301.218 134.942C300.766 135.218 300.25 135.372 299.72 135.39C299.377 135.393 299.04 135.306 298.741 135.138C298.379 134.894 298.088 134.558 297.899 134.165C297.71 133.772 297.628 133.336 297.663 132.901C297.712 131.853 298.012 130.832 298.538 129.925C299.064 129.017 299.801 128.249 300.686 127.685C301.042 127.429 301.461 127.275 301.897 127.241C302.334 127.206 302.772 127.292 303.163 127.489C303.526 127.732 303.816 128.068 304.004 128.462C304.191 128.856 304.268 129.293 304.227 129.727C304.178 130.773 303.879 131.792 303.355 132.699C302.832 133.606 302.099 134.375 301.218 134.942V134.942ZM305.417 127.35C304.941 127.615 304.563 127.35 304.563 126.846C304.577 126.549 304.662 126.26 304.811 126.002C304.959 125.744 305.167 125.526 305.417 125.364C305.892 125.084 306.284 125.364 306.284 125.853C306.274 126.148 306.195 126.437 306.054 126.697C305.913 126.956 305.714 127.18 305.473 127.35H305.417Z" fill="white"/>
<path d="M417.689 57.2675L408.634 62.4831C408.109 62.8247 407.672 63.285 407.358 63.8268C407.044 64.3685 406.863 64.9764 406.828 65.6013V71.1944C406.828 72.327 407.64 72.8025 408.634 72.2292L414.022 69.125L416.135 71.2364C416.185 71.2824 416.247 71.313 416.313 71.3246C416.38 71.3361 416.449 71.3281 416.511 71.3014C416.573 71.2748 416.626 71.2307 416.664 71.1745C416.702 71.1182 416.722 71.0523 416.723 70.9847V67.5589L417.689 66.9996C418.221 66.6627 418.666 66.2044 418.988 65.6624C419.309 65.1204 419.497 64.51 419.536 63.8814V58.2883C419.536 57.1557 418.682 56.6942 417.689 57.2675Z" fill="white"/>
<path d="M305.795 145.737C310.525 143.052 314.36 145.234 314.36 150.631C314.19 153.583 313.326 156.453 311.838 159.009C310.35 161.565 308.279 163.734 305.795 165.341C301.05 168.138 297.215 165.886 297.215 160.447C297.374 157.491 298.235 154.615 299.727 152.057C301.219 149.499 303.299 147.333 305.795 145.737V145.737Z" fill="#37474F"/>
<path d="M322.841 139.151L351.266 122.763C352.945 121.798 354.303 122.483 354.303 124.287C354.229 125.306 353.915 126.293 353.388 127.167C352.86 128.042 352.133 128.78 351.266 129.321L322.841 145.709C321.176 146.674 319.818 145.988 319.818 144.185C319.892 143.168 320.204 142.182 320.729 141.308C321.254 140.433 321.977 139.694 322.841 139.151Z" fill="#37474F"/>
<g opacity="0.7">
<path opacity="0.7" d="M322.841 139.151L351.266 122.763C352.945 121.798 354.303 122.483 354.303 124.287C354.229 125.306 353.915 126.293 353.388 127.167C352.86 128.042 352.133 128.78 351.266 129.321L322.841 145.709C321.176 146.674 319.818 145.988 319.818 144.185C319.892 143.168 320.204 142.182 320.729 141.308C321.254 140.433 321.977 139.694 322.841 139.151Z" fill="white"/>
</g>
<path d="M321.889 150.771L341.385 139.584C342.533 138.927 343.457 139.389 343.457 140.633C343.406 141.331 343.193 142.007 342.833 142.607C342.473 143.207 341.977 143.714 341.385 144.087L321.889 155.273C320.742 155.93 319.818 155.455 319.818 154.21C319.869 153.515 320.083 152.841 320.443 152.244C320.803 151.646 321.298 151.142 321.889 150.771Z" fill="#37474F"/>
<g opacity="0.7">
<path opacity="0.7" d="M321.889 150.771L341.385 139.584C342.533 138.927 343.457 139.389 343.457 140.633C343.406 141.331 343.193 142.007 342.833 142.607C342.473 143.207 341.977 143.714 341.385 144.087L321.889 155.273C320.742 155.93 319.818 155.455 319.818 154.21C319.869 153.515 320.083 152.841 320.443 152.244C320.803 151.646 321.298 151.142 321.889 150.771Z" fill="white"/>
</g>
<path d="M305.795 292.752C310.525 290.068 314.36 292.263 314.36 297.646C314.19 300.598 313.326 303.469 311.838 306.025C310.35 308.58 308.279 310.75 305.795 312.356C301.05 315.153 297.215 312.902 297.215 307.462C297.378 304.507 298.24 301.632 299.732 299.075C301.223 296.518 303.301 294.351 305.795 292.752Z" fill="#37474F"/>
<path d="M322.841 286.181L351.266 269.779C352.945 268.814 354.303 269.499 354.303 271.303C354.229 272.321 353.915 273.308 353.388 274.183C352.86 275.058 352.133 275.796 351.266 276.337L322.841 292.739C321.176 293.703 319.818 293.018 319.818 291.2C319.894 290.186 320.207 289.203 320.732 288.331C321.257 287.459 321.979 286.723 322.841 286.181Z" fill="#37474F"/>
<g opacity="0.7">
<path opacity="0.7" d="M322.841 286.181L351.266 269.779C352.945 268.814 354.303 269.499 354.303 271.303C354.229 272.321 353.915 273.308 353.388 274.183C352.86 275.058 352.133 275.796 351.266 276.337L322.841 292.739C321.176 293.703 319.818 293.018 319.818 291.2C319.894 290.186 320.207 289.203 320.732 288.331C321.257 287.459 321.979 286.723 322.841 286.181Z" fill="white"/>
</g>
<path d="M321.889 297.786L341.385 286.6C342.533 285.943 343.457 286.404 343.457 287.649C343.406 288.346 343.193 289.023 342.833 289.622C342.473 290.222 341.977 290.729 341.385 291.103L321.889 302.289C320.742 302.946 319.818 302.471 319.818 301.24C319.867 300.542 320.08 299.866 320.44 299.266C320.8 298.665 321.297 298.159 321.889 297.786V297.786Z" fill="#37474F"/>
<g opacity="0.7">
<path opacity="0.7" d="M321.889 297.786L341.385 286.6C342.533 285.943 343.457 286.404 343.457 287.649C343.406 288.346 343.193 289.023 342.833 289.622C342.473 290.222 341.977 290.729 341.385 291.103L321.889 302.289C320.742 302.946 319.818 302.471 319.818 301.24C319.867 300.542 320.08 299.866 320.44 299.266C320.8 298.665 321.297 298.159 321.889 297.786V297.786Z" fill="white"/>
</g>
<path d="M303.136 173.479L410.775 111.395C412.454 110.43 413.812 111.213 413.812 113.143V220.545C413.755 221.598 413.45 222.623 412.922 223.537C412.395 224.45 411.659 225.226 410.775 225.803L303.136 288.25C301.456 289.215 300.113 288.432 300.113 286.502V178.722C300.167 177.672 300.469 176.65 300.995 175.738C301.52 174.827 302.254 174.053 303.136 173.479V173.479Z" fill="#F5F5F5"/>
<path d="M342.645 198.075C342.37 197.672 341.99 197.353 341.547 197.15C341.103 196.948 340.613 196.871 340.128 196.927C339.644 196.983 339.184 197.171 338.799 197.469C338.414 197.767 338.117 198.165 337.942 198.62L300.154 270.324V286.502C300.154 288.432 301.554 289.215 303.177 288.25L410.817 226.124C411.701 225.548 412.437 224.772 412.964 223.858C413.492 222.945 413.797 221.92 413.854 220.867V185.071L393.406 148.785C392.273 146.758 390.691 146.884 389.865 149.051L362.644 221.132L342.645 198.075Z" fill="#37474F"/>
<g opacity="0.3">
<path opacity="0.3" d="M342.645 198.075C342.37 197.672 341.99 197.353 341.547 197.15C341.103 196.948 340.613 196.871 340.128 196.927C339.644 196.983 339.184 197.171 338.799 197.469C338.414 197.767 338.117 198.165 337.942 198.62L300.154 270.324V286.502C300.154 288.432 301.554 289.215 303.177 288.25L410.817 226.124C411.701 225.548 412.437 224.772 412.964 223.858C413.492 222.945 413.797 221.92 413.854 220.867V185.071L393.406 148.785C392.273 146.758 390.691 146.884 389.865 149.051L362.644 221.132L342.645 198.075Z" fill="#00564C"/>
</g>
<path d="M311.463 202.535C320.952 197.096 328.663 183.84 328.663 172.934C328.663 167.34 326.648 163.509 323.443 161.747L303.136 173.451C302.254 174.025 301.52 174.799 300.995 175.71C300.469 176.622 300.167 177.644 300.113 178.694V204.059C303.136 205.416 307.096 204.996 311.463 202.535Z" fill="#37474F"/>
<g opacity="0.6">
<path opacity="0.6" d="M311.463 202.535C320.952 197.096 328.663 183.84 328.663 172.934C328.663 167.34 326.648 163.509 323.443 161.747L303.136 173.451C302.254 174.025 301.52 174.799 300.995 175.71C300.469 176.622 300.167 177.644 300.113 178.694V204.059C303.136 205.416 307.096 204.996 311.463 202.535Z" fill="white"/>
</g>
<path d="M303.136 321.054L410.775 258.956C412.454 257.991 413.812 258.676 413.812 260.494C413.736 261.51 413.421 262.494 412.894 263.367C412.366 264.239 411.64 264.974 410.775 265.514L303.136 327.612C301.456 328.577 300.113 327.891 300.113 326.074C300.184 325.058 300.495 324.073 301.02 323.201C301.546 322.328 302.271 321.593 303.136 321.054V321.054Z" fill="#37474F"/>
<g opacity="0.6">
<path opacity="0.6" d="M303.136 321.054L410.775 258.956C412.454 257.991 413.812 258.676 413.812 260.494C413.736 261.51 413.421 262.494 412.894 263.367C412.366 264.239 411.64 264.974 410.775 265.514L303.136 327.612C301.456 328.577 300.113 327.891 300.113 326.074C300.184 325.058 300.495 324.073 301.02 323.201C301.546 322.328 302.271 321.593 303.136 321.054V321.054Z" fill="white"/>
</g>
<path d="M303.136 334.17L410.775 272.114C412.454 271.149 413.812 271.834 413.812 273.652C413.736 274.668 413.421 275.652 412.894 276.524C412.366 277.396 411.64 278.132 410.775 278.672L303.136 340.77C301.456 341.734 300.113 341.049 300.113 339.231C300.178 338.209 300.487 337.216 301.013 336.336C301.538 335.456 302.266 334.713 303.136 334.17V334.17Z" fill="#37474F"/>
<g opacity="0.6">
<path opacity="0.6" d="M303.136 334.17L410.775 272.114C412.454 271.149 413.812 271.834 413.812 273.652C413.736 274.668 413.421 275.652 412.894 276.524C412.366 277.396 411.64 278.132 410.775 278.672L303.136 340.77C301.456 341.734 300.113 341.049 300.113 339.231C300.178 338.209 300.487 337.216 301.013 336.336C301.538 335.456 302.266 334.713 303.136 334.17V334.17Z" fill="white"/>
</g>
<path d="M319.734 115.017L396.527 70.761C398.879 69.3627 400.726 70.5093 400.726 73.208C400.653 74.6734 400.235 76.1009 399.505 77.3742C398.776 78.6475 397.755 79.7305 396.527 80.535L319.748 124.665C317.397 126.063 315.549 124.944 315.549 122.288C315.629 120.833 316.049 119.418 316.776 118.155C317.503 116.892 318.516 115.817 319.734 115.017V115.017Z" fill="#FAFAFA"/>
<path d="M545.355 198.956L550.8 208.925L542.332 216.182L534.565 203.891L545.355 198.956Z" fill="#F28F8F"/>
<path d="M524.922 176.737C530.324 176.737 536.272 178.75 538.316 182.987L546.713 200.382C546.713 200.382 541.941 207.373 534.369 206.87L524.922 176.737Z" fill="#E0E0E0"/>
<path d="M544.936 210.477C546.517 207.541 546.909 207.401 547.847 206.758C548.784 206.115 554.55 205.262 556.944 205.052C559.743 204.814 560.764 205.332 559.981 207.751C557.825 213.852 555.185 219.771 552.087 225.453C551.331 226.446 551.192 227.369 548.015 227.69C545.061 227.97 541.353 228.138 540.261 228.194C539.169 228.25 537.658 228.543 538.624 225.327C539.873 221.694 541.321 218.133 542.962 214.658C544.18 211.988 544.936 210.477 544.936 210.477Z" fill="#37474F"/>
<path d="M481.872 309.406C480.472 308.707 479.675 310.412 478.457 311.783C477.411 312.791 476.595 314.011 476.064 315.362C475.77 316.97 477.239 319.557 478.863 320.956C480.486 322.354 482.362 323.375 482.95 326.451C483.101 327.862 483.649 329.202 484.531 330.316C485.413 331.429 486.592 332.271 487.932 332.743C491.431 334.253 496.119 333.764 497.729 332.743C499.604 331.527 497.883 330.184 495.252 326.409C491.809 321.487 489.122 318.019 489.122 313.363L481.872 309.406Z" fill="#263238"/>
<path d="M484.629 305.365L481.83 309.56C481.226 310.417 480.987 311.478 481.166 312.511C481.344 313.544 481.925 314.464 482.782 315.069L482.866 315.139C483.727 315.649 484.739 315.843 485.728 315.688C486.717 315.532 487.62 315.036 488.282 314.286L492.705 309.476L484.629 305.365Z" fill="#FFA8A7"/>
<path d="M536.608 224.488C536.79 229.774 535.293 251.125 531.64 260.564C527.987 270.002 525.874 275.875 524.726 277.847C523.578 279.818 490.465 312.007 490.465 312.007C490.465 312.007 484.867 311.601 483.957 306.162C483.957 306.162 497.519 283.118 500.458 278.392C503.397 273.666 513.809 266.423 513.809 266.423L512.858 225.089L536.608 224.488Z" fill="#37474F"/>
<path d="M487.554 219.342C487.554 218.433 490.353 207.988 491.753 203.164L502.011 206.688L499.604 214.295L490.577 223.621C489.62 223.431 488.773 222.881 488.211 222.084C487.648 221.288 487.413 220.307 487.554 219.342V219.342Z" fill="#FFA8A7"/>
<path d="M529.313 336.975L536.314 335.385L533.996 325.2L526.995 326.79L529.313 336.975Z" fill="#FFA8A7"/>
<path d="M536.608 224.488H503.019C502.285 229.388 501.865 234.329 501.759 239.282C501.494 253.824 515.041 280.238 515.041 280.238C514.391 286.115 514.684 292.057 515.909 297.842C518.876 309.42 526.965 329.038 526.965 329.038C526.965 329.038 532.046 329.751 534.551 326.829C534.551 326.829 530.072 287.019 528.869 276.826C527.567 265.779 524.208 245.63 524.208 245.63C526.425 243.423 528.435 241.017 530.212 238.443C533.328 234.299 535.505 229.528 536.594 224.46" fill="#37474F"/>
<path d="M513.838 177.03C507.4 178.582 498.624 180.596 496.091 187.559C493.558 194.523 489.905 206.87 489.905 206.87C491.305 209.317 499.072 211.344 501.773 209.932L503.033 205.737V224.446C508.071 229.927 525.622 232.472 536.622 224.446V189.489C536.622 183.896 533.515 177.184 524.936 176.695L513.838 177.03Z" fill="#11B5E4"/>
<path d="M503.033 205.779L506.266 195.614L503.033 210.324V205.779Z" fill="#E0E0E0"/>
<path d="M511.416 148.463C510.839 148.399 510.254 148.466 509.706 148.66C509.159 148.854 508.662 149.169 508.253 149.582C506.854 150.98 507.176 153.539 508.253 159.454L512.452 159.929L511.416 148.463Z" fill="#263238"/>
<path d="M535.922 146.757C536.805 146.767 537.68 146.6 538.498 146.268C539.785 145.527 540.121 146.995 539.407 148.268C538.941 149.179 538.248 149.956 537.396 150.524C536.543 151.092 535.559 151.432 534.537 151.512C534.537 151.33 533.333 148.226 533.333 148.226L535.922 146.757Z" fill="#263238"/>
<path d="M513.39 159.929C512.774 160.307 511.878 159.104 511.108 158.307C510.807 157.96 510.422 157.695 509.99 157.538C509.558 157.381 509.093 157.337 508.638 157.409C508.184 157.482 507.756 157.67 507.395 157.954C507.034 158.238 506.751 158.61 506.574 159.034C505.3 161.719 508.197 165.299 509.905 166.473C510.378 166.887 510.971 167.14 511.597 167.195C512.223 167.25 512.851 167.105 513.39 166.781L513.837 177.058C514.592 178.705 515.742 180.139 517.185 181.234C518.628 182.33 520.319 183.052 522.109 183.337C528.155 184.148 526.909 179.142 524.908 176.737V173.003C526.421 173.322 527.975 173.398 529.512 173.227C530.296 173.017 532.172 170.752 533.389 168.207C535.971 163.112 536.545 157.234 534.999 151.735C532.829 142.535 522.935 142.255 517.042 145.96C511.15 149.666 513.39 159.929 513.39 159.929Z" fill="#FFA8A7"/>
<path d="M513.39 160.978C513.082 160.978 511.892 159.007 511.108 158.307C510.031 157.329 511.416 148.519 511.416 148.519C511.119 147.573 511.059 146.567 511.242 145.592C511.425 144.617 511.846 143.701 512.466 142.926C514.593 140.689 518.708 141.067 521.717 140.969C525.419 140.983 529.085 140.246 532.493 138.801C536.776 136.942 537.098 136.732 537.616 138.606C538.03 140.154 538.081 141.777 537.765 143.348C537.45 144.92 536.776 146.397 535.796 147.666L534.397 149.932C534.397 149.932 533.095 151.022 529.107 151.512C525.118 152.001 518.316 149.848 517.462 149.736C516.301 149.582 516.063 150.701 515.433 153.763C514.901 156.406 514.453 160.964 513.39 160.978Z" fill="#263238"/>
<path d="M511.43 149.163L507.652 147.135C507.772 146.889 507.941 146.668 508.147 146.487C508.353 146.306 508.593 146.167 508.853 146.078C509.113 145.99 509.388 145.954 509.663 145.972C509.937 145.99 510.205 146.062 510.451 146.184C510.969 146.456 511.362 146.919 511.545 147.475C511.728 148.031 511.687 148.636 511.43 149.163V149.163Z" fill="#263238"/>
<path d="M524.908 173.003C522.333 172.51 519.808 171.785 517.364 170.836C516.22 170.232 515.28 169.303 514.663 168.165C514.959 169.307 515.482 170.377 516.203 171.311C517.602 173.143 524.908 174.485 524.908 174.485V173.003Z" fill="#F28F8F"/>
<path d="M525.09 159.734C525.094 160.035 524.978 160.326 524.769 160.544C524.559 160.761 524.272 160.887 523.97 160.894C523.82 160.891 523.671 160.857 523.533 160.796C523.395 160.735 523.271 160.648 523.167 160.539C523.063 160.43 522.981 160.301 522.927 160.161C522.873 160.02 522.847 159.87 522.851 159.72C522.847 159.418 522.962 159.127 523.172 158.91C523.382 158.692 523.668 158.566 523.97 158.559C524.121 158.563 524.27 158.596 524.407 158.657C524.545 158.718 524.67 158.806 524.774 158.915C524.878 159.024 524.959 159.152 525.013 159.293C525.068 159.433 525.094 159.583 525.09 159.734V159.734Z" fill="#263238"/>
<path d="M523.901 155.497L521.507 156.895C521.416 156.733 521.359 156.554 521.338 156.37C521.317 156.185 521.333 155.998 521.385 155.82C521.437 155.641 521.524 155.475 521.641 155.331C521.759 155.187 521.903 155.067 522.067 154.979C522.382 154.818 522.745 154.782 523.086 154.878C523.426 154.974 523.717 155.195 523.901 155.497Z" fill="#263238"/>
<path d="M524.404 167.242L526.966 168.207C526.839 168.543 526.588 168.817 526.266 168.973C525.943 169.129 525.572 169.155 525.23 169.046C525.057 168.982 524.898 168.885 524.763 168.76C524.628 168.634 524.518 168.484 524.442 168.316C524.365 168.148 524.322 167.967 524.316 167.783C524.309 167.599 524.34 167.415 524.404 167.242V167.242Z" fill="#F28F8F"/>
<path d="M535.083 156.434L532.9 154.756C533.119 154.473 533.439 154.284 533.793 154.23C534.147 154.175 534.508 154.258 534.803 154.462C534.952 154.572 535.078 154.711 535.173 154.87C535.267 155.029 535.33 155.206 535.356 155.389C535.382 155.573 535.371 155.76 535.324 155.939C535.277 156.118 535.195 156.286 535.083 156.434V156.434Z" fill="#263238"/>
<path d="M534.411 159.412C534.415 159.714 534.299 160.005 534.09 160.222C533.88 160.439 533.593 160.565 533.291 160.573C533.141 160.569 532.992 160.536 532.854 160.475C532.716 160.414 532.592 160.326 532.488 160.217C532.384 160.108 532.303 159.979 532.248 159.839C532.194 159.698 532.168 159.549 532.172 159.398C532.168 159.096 532.283 158.805 532.493 158.588C532.703 158.371 532.989 158.245 533.291 158.237C533.595 158.248 533.881 158.377 534.091 158.597C534.3 158.816 534.415 159.109 534.411 159.412V159.412Z" fill="#263238"/>
<path d="M529.135 159.272L528.085 165.928L531.766 165.495L529.135 159.272Z" fill="#F28F8F"/>
<path d="M535.516 331.988L535.293 330.981C536.02 331.121 539.169 336.337 542.29 338.602C545.705 341.077 548.658 342.545 550.184 343.664C552.227 345.16 549.274 348.222 544.25 348.502C541.758 348.628 537.252 347.873 535.852 346.544C534.453 345.216 533.445 343.02 532.326 342.07C531.206 341.119 528.981 340.28 528.211 339.063C527.799 337.855 527.651 336.572 527.777 335.302C527.777 333.988 527.875 332.505 528.323 332.575L528.491 333.33C529.789 333.992 531.233 334.314 532.689 334.267C533.907 334.211 536.104 333.946 535.516 331.988Z" fill="#263238"/>
<path d="M528.001 270.058C528.001 270.058 525.02 248.902 524.222 245.63C526.617 244.324 528.844 242.732 530.856 240.89C529.468 242.873 527.954 244.765 526.321 246.553L528.001 270.058Z" fill="#263238"/>
<path d="M510.017 269.317C510.017 269.317 513.6 278.224 515.055 280.196C515.055 280.196 514.691 286.991 514.733 288.362L512.858 289.998C512.809 286.923 513.091 283.853 513.698 280.839C512.052 277.144 510.818 273.281 510.017 269.317Z" fill="#263238"/>
<path d="M499.646 214.295C499.646 214.295 527.875 217.315 531.192 216.294C534.509 215.274 538.959 211.988 541.297 210.589C543.634 209.191 545.411 209.107 545.411 209.68C545.411 210.254 543.368 213.372 542.906 214.672C542.444 215.973 545.103 215.973 548.616 215.162C552.129 214.351 553.529 212.365 554.438 213.512C555.348 214.658 552.493 220.503 546.671 222.698C540.849 224.894 536.524 223.426 531.71 223.635C526.895 223.845 497.239 225.733 490.563 223.635C490.386 222.566 490.509 221.469 490.916 220.465C491.323 219.461 492 218.589 492.872 217.944C494.89 216.327 497.185 215.09 499.646 214.295V214.295Z" fill="#FFA8A7"/>
<path d="M343.149 349.019C343.219 348.11 344.94 338.322 346.116 332.841L357.634 336.365L355.786 344.041L346.214 353.298C345.249 353.117 344.392 352.571 343.821 351.773C343.25 350.976 343.009 349.989 343.149 349.019V349.019Z" fill="#FFA8A7"/>
<path d="M368.396 266.157H373.995C378.126 266.157 382.088 267.796 385.009 270.715C387.93 273.634 389.572 277.592 389.572 281.72V321.375H352.819V281.72C352.819 277.592 354.461 273.634 357.382 270.715C360.303 267.796 364.265 266.157 368.396 266.157Z" fill="#263238"/>
<path d="M398.865 328.45L404.309 338.42L395.828 345.663L388.074 333.372L398.865 328.45Z" fill="#F28F8F"/>
<path d="M378.431 306.218C383.833 306.218 389.782 308.231 391.825 312.468L400.222 329.862C400.222 329.862 395.45 336.854 387.878 336.365L378.431 306.218Z" fill="#455A64"/>
<path d="M382.798 478.724C384.657 481.208 386.747 483.512 389.04 485.603C389.408 485.899 389.7 486.277 389.893 486.708C390.131 487.435 390.439 489.183 387.206 489.896C385.567 490.255 383.87 490.257 382.231 489.903C380.591 489.548 379.047 488.845 377.703 487.841C375.338 485.939 375.618 482.597 373.435 480.402C371.811 478.794 369.614 478.164 368.396 476.207C367.543 474.809 368.005 473.145 368.774 471.089C369.544 469.034 370.09 467.16 370.832 467.426L370.58 468.46C371.349 470.096 376.178 471.131 378.543 470.348C379.816 473.211 381.236 476.007 382.798 478.724Z" fill="#263238"/>
<path d="M384.701 481.129C384.044 480.36 383.4 479.577 382.798 478.724C381.56 476.665 380.452 474.531 379.481 472.334C378.85 471.025 378.74 469.526 379.173 468.139L380.769 462.755L372.371 460.826L370.552 468.363C370.16 470.082 371.406 471.788 373.687 474.277C375.968 476.766 378.599 482.248 380.685 483.8C382.77 485.352 384.477 485.506 385.541 484.974C386.605 484.443 386.871 483.953 384.701 481.129Z" fill="#FFA8A7"/>
<path d="M360.209 483.464V482.275C360.685 483.674 362.84 489.63 366.115 492.623C368.732 494.986 372.287 497.74 373.183 500.383C374.079 503.026 368.242 504.061 365.807 503.627C362.558 503.083 359.577 501.486 357.326 499.083C355.926 497.363 355.031 495.321 354.023 493.965C353.015 492.609 350.72 491.169 350.188 489.546C350.02 488.085 350.178 486.605 350.65 485.212C351.042 483.814 351.448 482.15 351.952 482.275V483.254C353.15 484.187 354.632 484.68 356.15 484.653C357.298 484.653 360.223 484.387 360.209 483.464Z" fill="#263238"/>
<path d="M368.481 494.706L366.115 492.609C363.922 490.287 362.21 487.554 361.077 484.569C360.504 483.19 360.209 481.713 360.209 480.22V475.508H351.952V483.17V483.38C352.344 485.1 356.151 489.658 358.292 492.637C360.048 495.196 362.725 496.98 365.765 497.615C368.914 498.034 370.552 497.055 368.481 494.706Z" fill="#FFA8A7"/>
<path d="M353.589 355.158C347.193 369.14 353.827 418.374 353.827 418.374C353.631 420.653 351.028 425.114 350.076 435.153C348.929 446.955 351.868 476.571 351.868 476.571C353.132 477.312 354.56 477.73 356.024 477.789C357.489 477.847 358.946 477.544 360.265 476.906C360.265 476.906 368.145 432.287 369.628 420.555L374.359 382.913L381.356 419.646C379.484 422.525 377.935 425.601 376.738 428.819C375.072 434.007 371.699 463.567 371.699 463.567C372.838 464.606 374.198 465.372 375.678 465.806C377.158 466.24 378.717 466.33 380.237 466.069C380.237 466.069 396.402 425.519 397.129 417.241C397.563 412.277 390.313 353.172 390.313 353.172L353.589 355.158Z" fill="#37474F"/>
<path d="M374.303 382.858L375.422 374.775C375.422 374.775 384.226 372.958 388.214 369.182C385.46 372.408 381.858 374.8 377.816 376.09L376.64 383.892L378.04 401.972L374.303 382.858Z" fill="#263238"/>
<path d="M364.954 306.595C362.597 307.168 360.399 308.262 358.522 309.796C356.644 311.33 355.136 313.266 354.107 315.46C352.596 318.797 352.455 322.592 353.715 326.031L359.355 342.573C359.355 342.573 356.682 349.047 353.561 355.157C367.935 363.17 385.863 358.961 390.187 353.116C390.369 351.871 390.117 346.278 390.467 339.93C390.831 333.148 391.769 325.486 390.705 321.305C388.718 313.517 385.009 306.218 377.633 306.218L364.954 306.595Z" fill="#F03E3D"/>
<path d="M362.756 306.595C357.858 307.28 350.664 308.273 348.173 319.907C345.682 331.541 344.94 335.805 344.94 335.805C346.537 337.371 348.44 338.592 350.53 339.39C352.62 340.189 354.853 340.549 357.088 340.448L359.621 331.499L362.756 306.595Z" fill="#455A64"/>
<path d="M365.541 316.411C364.696 316.411 363.859 316.245 363.078 315.922C362.296 315.598 361.587 315.125 360.989 314.527C360.391 313.93 359.917 313.221 359.593 312.441C359.27 311.66 359.103 310.824 359.103 309.979V291.256H365.541V316.411Z" fill="#263238"/>
<path d="M383.54 273.582C385.485 274.728 387.878 279.608 387.64 289.83C387.444 298.499 384.631 300.652 383.218 301.268C381.804 301.883 379.089 301.505 376.444 301.058V306.259C376.444 306.259 380.097 310.454 379.873 312.901C379.649 315.348 374.582 315.852 371.153 313.517C368.945 311.916 367.048 309.926 365.555 307.644V295.059C365.277 295.4 364.933 295.682 364.544 295.89C364.155 296.097 363.729 296.225 363.291 296.267C362.852 296.308 362.409 296.263 361.988 296.132C361.568 296.002 361.177 295.789 360.839 295.507C357.914 293.563 357.802 288.767 359.509 287.117C361.217 285.467 364.87 285.942 365.555 288.319C369.014 288.168 372.381 287.159 375.352 285.383C377.555 284.205 379.446 282.52 380.869 280.468C382.293 278.416 383.208 276.056 383.54 273.582V273.582Z" fill="#FFA8A7"/>
<path d="M377.955 287.662C377.958 287.876 377.897 288.086 377.781 288.266C377.665 288.446 377.499 288.587 377.303 288.673C377.107 288.759 376.89 288.786 376.679 288.75C376.468 288.714 376.272 288.616 376.116 288.47C375.96 288.324 375.851 288.135 375.801 287.927C375.752 287.718 375.765 287.5 375.839 287.3C375.912 287.099 376.043 286.924 376.216 286.797C376.388 286.67 376.594 286.597 376.808 286.586C376.954 286.58 377.1 286.604 377.237 286.655C377.374 286.706 377.5 286.784 377.607 286.884C377.714 286.984 377.799 287.105 377.859 287.238C377.919 287.372 377.952 287.516 377.955 287.662V287.662Z" fill="#263238"/>
<path d="M378.249 295.003L380.782 295.814C380.737 295.985 380.658 296.144 380.55 296.283C380.442 296.422 380.306 296.537 380.152 296.622C379.997 296.707 379.827 296.76 379.652 296.778C379.476 296.795 379.299 296.776 379.131 296.723C378.791 296.605 378.509 296.36 378.345 296.04C378.181 295.72 378.146 295.348 378.249 295.003V295.003Z" fill="#F28F8F"/>
<path d="M386.898 284.306L384.701 282.782C384.793 282.633 384.915 282.505 385.059 282.404C385.202 282.304 385.365 282.234 385.536 282.199C385.708 282.163 385.885 282.163 386.057 282.199C386.228 282.234 386.391 282.304 386.535 282.405C386.829 282.614 387.031 282.928 387.099 283.282C387.167 283.637 387.095 284.004 386.898 284.306V284.306Z" fill="#263238"/>
<path d="M386.394 286.865C386.414 287.16 386.316 287.45 386.122 287.673C385.928 287.895 385.653 288.032 385.359 288.054C385.065 288.058 384.781 287.948 384.567 287.747C384.353 287.546 384.226 287.27 384.211 286.977C384.204 286.834 384.225 286.691 384.273 286.556C384.321 286.42 384.395 286.296 384.491 286.19C384.587 286.083 384.704 285.997 384.833 285.935C384.963 285.873 385.103 285.838 385.247 285.831C385.39 285.823 385.534 285.844 385.669 285.892C385.804 285.94 385.929 286.014 386.035 286.111C386.142 286.207 386.228 286.323 386.29 286.452C386.352 286.582 386.387 286.722 386.394 286.865V286.865Z" fill="#263238"/>
<path d="M381.244 286.25L381.426 292.808L384.883 291.731L381.244 286.25Z" fill="#F28F8F"/>
<path d="M376.444 301.058C373.645 300.694 367.907 299.044 367.011 296.779C367.368 297.929 368.072 298.94 369.026 299.674C370.734 301.142 376.444 302.806 376.444 302.806V301.058Z" fill="#F28F8F"/>
<path d="M398.431 339.958C400.012 337.022 400.404 336.896 401.356 336.253C402.308 335.609 408.06 334.743 410.453 334.533C413.252 334.295 414.274 334.812 413.49 337.245C411.308 343.34 408.65 349.255 405.541 354.934C404.785 355.941 404.631 356.863 401.468 357.171C398.305 357.479 394.792 357.618 393.7 357.688C392.609 357.758 391.097 358.024 392.077 354.808C393.325 351.176 394.768 347.615 396.401 344.139C397.675 341.496 398.431 339.958 398.431 339.958Z" fill="#37474F"/>
<path d="M355.786 344.097C355.786 344.097 381.384 346.796 384.701 345.775C388.018 344.754 392.469 341.44 394.862 340.07C397.255 338.7 398.976 338.588 398.976 339.147C398.976 339.707 396.933 342.853 396.457 344.139C395.981 345.426 398.669 345.439 402.167 344.628C405.666 343.817 407.08 341.832 408.004 342.979C408.927 344.125 406.058 349.97 400.236 352.165C394.414 354.361 390.089 352.906 385.275 353.102C380.46 353.298 352.889 355.451 346.213 353.354C346.037 352.285 346.159 351.188 346.566 350.184C346.974 349.179 347.651 348.307 348.523 347.663C350.681 346.002 353.151 344.789 355.786 344.097Z" fill="#FFA8A7"/>
<path d="M357.634 337.525C358.732 334.554 359.667 331.524 360.433 328.45C360.433 328.45 359.971 335.204 358.068 338.826L357.634 337.525Z" fill="#37474F"/>
<path d="M150.515 254.369L145.966 264.185L154.433 271.429L161.753 259.082L150.515 254.369Z" fill="#F28F8F"/>
<path d="M171.396 231.913C165.994 231.913 160.046 233.941 158.002 238.164C155.959 242.386 149.605 255.572 149.605 255.572C149.605 255.572 154.377 262.564 161.949 262.06L171.396 231.913Z" fill="#37474F"/>
<path d="M194.824 387.668H187.351V398.532H194.824V387.668Z" fill="#FFA8A7"/>
<path d="M168.548 374.225L161.079 374.482L161.453 385.34L168.922 385.084L168.548 374.225Z" fill="#FFA8A7"/>
<path d="M194.32 281.594C194.32 288.725 195.244 334.813 195.244 334.813C195.426 336.854 197.343 340.644 196.924 348.516C196.364 359.213 195.44 388.926 195.44 388.926C195.44 388.926 191.941 392.394 187.043 388.926C187.043 388.926 180.269 348.544 178.939 337.945C177.764 328.702 175.79 303.575 175.79 303.575L168.863 333.149C168.863 333.149 170.08 340.14 170.36 345.006C170.64 349.872 169.087 378.271 169.087 378.271C167.876 379.026 166.488 379.452 165.062 379.506C163.635 379.56 162.22 379.24 160.955 378.579C160.955 378.579 154.965 337.162 154.195 332.729C153.426 328.297 159.444 281.594 159.444 281.594H194.32Z" fill="#37474F"/>
<path d="M183.082 232.249H183.194C186.4 233.054 189.244 234.908 191.273 237.516C193.302 240.123 194.4 243.334 194.39 246.637V281.594C189.156 287.285 170.906 289.984 159.402 281.594V245.239C159.402 239.436 162.635 232.444 171.55 231.927L183.082 232.249Z" fill="#02897A"/>
<path d="M185.601 202.507C186.202 202.44 186.809 202.51 187.379 202.711C187.949 202.912 188.465 203.239 188.89 203.668C190.29 205.066 190.01 207.793 188.89 213.931L184.524 214.435L185.601 202.507Z" fill="#263238"/>
<path d="M160.115 200.801C159.178 200.804 158.25 200.619 157.386 200.256C155.987 199.487 155.693 201.011 156.421 202.325C156.908 203.274 157.631 204.082 158.521 204.672C159.41 205.262 160.436 205.615 161.501 205.695C161.501 205.514 162.747 202.298 162.747 202.298L160.115 200.801Z" fill="#263238"/>
<path d="M183.544 214.435C184.202 214.826 185.125 213.582 185.923 212.743C186.236 212.379 186.637 212.102 187.088 211.937C187.538 211.773 188.024 211.728 188.497 211.805C188.971 211.882 189.417 212.08 189.792 212.378C190.167 212.677 190.459 213.068 190.64 213.512C192.039 216.308 188.946 220.028 187.183 221.244C186.688 221.675 186.069 221.938 185.416 221.996C184.762 222.054 184.107 221.903 183.544 221.566L183.082 232.249C182.299 233.963 181.102 235.456 179.6 236.595C178.099 237.735 176.338 238.485 174.475 238.779C168.191 239.632 169.492 234.458 171.55 231.913V228.026C169.983 228.366 168.371 228.451 166.777 228.278C165.952 228.054 163.978 225.691 162.733 223.048C161.333 220.084 158.968 214.826 161.067 205.919C163.32 196.341 173.663 196.047 179.737 199.906C185.811 203.766 183.544 214.435 183.544 214.435Z" fill="#FFA8A7"/>
<path d="M183.544 215.525C183.88 215.525 185.112 213.484 185.923 212.729C187.043 211.708 185.601 202.493 185.601 202.493C185.601 202.493 186.735 199.012 184.524 196.69C182.312 194.369 178.016 194.761 174.881 194.649C171.034 194.672 167.223 193.906 163.684 192.398C159.234 190.468 158.898 190.244 158.352 192.188C157.92 193.798 157.866 195.486 158.194 197.121C158.521 198.755 159.222 200.292 160.241 201.612L162.453 202.423C162.453 202.423 163.642 203.486 167.799 203.989C171.632 204.273 175.483 204.203 179.303 203.78C180.507 203.612 180.703 204.772 181.417 207.975C181.977 210.771 182.452 215.511 183.544 215.525Z" fill="#263238"/>
<path d="M185.587 203.234L189.52 201.123C189.395 200.859 189.218 200.623 188.999 200.429C188.78 200.236 188.524 200.089 188.247 199.997C187.969 199.906 187.676 199.872 187.385 199.897C187.094 199.922 186.811 200.006 186.553 200.144C186.026 200.437 185.632 200.921 185.452 201.497C185.273 202.072 185.321 202.694 185.587 203.234V203.234Z" fill="#263238"/>
<path d="M171.564 228.026C174.246 227.523 176.874 226.769 179.415 225.775C180.611 225.148 181.587 224.173 182.214 222.978C181.909 224.165 181.366 225.278 180.619 226.25C179.135 228.152 171.55 229.55 171.55 229.55L171.564 228.026Z" fill="#F28F8F"/>
<path d="M172.963 212.98C172.969 213.212 173.043 213.437 173.176 213.627C173.309 213.816 173.495 213.962 173.711 214.047C173.927 214.131 174.164 214.149 174.39 214.1C174.617 214.05 174.823 213.935 174.985 213.768C175.146 213.601 175.254 213.391 175.295 213.163C175.337 212.935 175.31 212.7 175.218 212.487C175.126 212.274 174.973 212.093 174.779 211.967C174.584 211.841 174.357 211.775 174.125 211.778C173.812 211.785 173.514 211.916 173.297 212.141C173.079 212.366 172.96 212.668 172.963 212.98Z" fill="#263238"/>
<path d="M174.195 208.59L176.7 209.988C176.874 209.645 176.91 209.248 176.801 208.879C176.691 208.51 176.445 208.196 176.112 208.003C175.949 207.913 175.768 207.857 175.582 207.838C175.396 207.819 175.208 207.837 175.03 207.892C174.851 207.947 174.685 208.037 174.542 208.157C174.398 208.276 174.28 208.424 174.195 208.59Z" fill="#263238"/>
<path d="M173.047 220.88L170.388 221.887C170.446 222.065 170.54 222.23 170.663 222.371C170.786 222.512 170.936 222.627 171.104 222.709C171.273 222.792 171.456 222.839 171.643 222.849C171.83 222.859 172.017 222.832 172.194 222.768C172.554 222.627 172.846 222.351 173.005 221.998C173.165 221.645 173.18 221.244 173.047 220.88V220.88Z" fill="#F28F8F"/>
<path d="M162.565 209.555L164.818 207.793C164.71 207.64 164.572 207.51 164.412 207.411C164.253 207.313 164.075 207.247 163.89 207.218C163.704 207.19 163.515 207.198 163.333 207.244C163.151 207.29 162.98 207.372 162.831 207.485C162.528 207.73 162.332 208.081 162.282 208.467C162.233 208.852 162.334 209.242 162.565 209.555V209.555Z" fill="#263238"/>
<path d="M163.264 212.659C163.261 212.972 163.381 213.273 163.598 213.498C163.815 213.724 164.113 213.854 164.426 213.861C164.743 213.854 165.044 213.722 165.264 213.494C165.484 213.267 165.605 212.961 165.602 212.645C165.62 212.481 165.603 212.315 165.552 212.158C165.502 212 165.419 211.856 165.308 211.733C165.198 211.61 165.063 211.512 164.912 211.444C164.762 211.377 164.598 211.342 164.433 211.342C164.268 211.342 164.105 211.377 163.954 211.444C163.803 211.512 163.668 211.61 163.558 211.733C163.447 211.856 163.364 212 163.314 212.158C163.263 212.315 163.246 212.481 163.264 212.645V212.659Z" fill="#263238"/>
<path d="M169.213 211.554L168.821 218.559L165.168 217.315L169.213 211.554Z" fill="#F28F8F"/>
<path d="M187.351 394.841V393.764C186.637 394.072 184.972 400.406 182.018 403.105C179.653 405.244 176.42 407.733 175.623 410.096C174.825 412.459 180.101 413.956 182.298 413.564C184.86 413.117 189.296 411.313 190.402 409.649C191.507 407.985 192.039 405.524 192.935 404.293C193.831 403.063 195.93 401.707 196.42 400.294C196.564 398.973 196.416 397.637 195.986 396.379C195.636 395.065 195.272 393.583 194.824 393.736C194.824 393.89 194.824 394.547 194.824 394.547C193.762 395.385 192.441 395.83 191.088 395.806C190.01 395.89 187.337 395.68 187.351 394.841Z" fill="#263238"/>
<path d="M161.389 383.026C160.997 383.026 160.675 383.585 159.821 384.508C158.547 385.803 157.061 386.872 155.427 387.668C152.628 389.066 147.198 391.22 144.734 392.324C143.209 393.023 143.335 394.869 144.86 395.932C146.386 396.995 150.291 397.75 154.895 396.715C157.4 396.156 160.675 393.848 162.733 393.918C164.79 393.988 168.667 394.016 170.192 392.967C171.718 391.919 171.116 389.668 170.682 387.738C170.248 385.808 169.534 382.424 168.835 382.564V383.221C167.939 384.62 163.362 385.137 161.389 384.144V383.026Z" fill="#263238"/>
<path d="M151.396 265.668C149.815 262.717 149.423 262.592 148.471 261.948C147.52 261.305 141.767 260.438 139.374 260.242C136.575 260.005 135.553 260.522 136.337 262.941C138.504 269.038 141.144 274.956 144.231 280.643C144.986 281.636 145.14 282.559 148.303 282.867C151.466 283.174 154.979 283.314 156.071 283.384C157.162 283.454 158.674 283.72 157.694 280.504C156.444 276.873 155 273.311 153.37 269.835C152.222 267.192 151.396 265.668 151.396 265.668Z" fill="#37474F"/>
<path d="M208.764 274.533C208.694 273.61 205.965 263.179 204.565 258.355L194.32 261.878L196.728 269.471L205.741 278.798C206.696 278.61 207.543 278.063 208.106 277.269C208.669 276.475 208.904 275.495 208.764 274.533V274.533Z" fill="#FFA8A7"/>
<path d="M196.686 269.471C196.686 269.471 168.443 272.491 165.126 271.471C161.809 270.45 157.358 267.136 154.965 265.766C152.572 264.395 150.851 264.283 150.851 264.857C150.851 265.43 152.894 268.548 153.37 269.835C153.846 271.121 151.158 271.135 147.66 270.324C144.161 269.513 142.747 267.527 141.823 268.674C140.9 269.821 143.769 275.665 149.591 277.861C155.413 280.056 159.738 278.602 164.552 278.798C169.367 278.993 199.023 280.895 205.699 278.798C205.876 277.731 205.754 276.635 205.346 275.633C204.939 274.631 204.262 273.762 203.39 273.121C201.391 271.514 199.12 270.278 196.686 269.471V269.471Z" fill="#FFA8A7"/>
<path d="M185.447 233.046C189.884 234.514 198.687 235.255 201.528 244.847C204.369 254.439 205.797 260.662 205.797 260.662C204.117 262.899 197.4 265.486 194.321 264.521L185.447 233.046Z" fill="#455A64"/>
<path d="M194.321 264.521L191.284 253.754L194.321 268.912V264.521Z" fill="#37474F"/>
<path d="M130.613 287.145C130.473 287.327 129.283 289.298 129.283 289.298L123.811 297.129L118.479 305.113C118.311 305.356 118.07 305.54 117.791 305.638C117.512 305.736 117.209 305.743 116.925 305.658L116.561 305.533C114.714 304.847 111.943 303.687 108.262 301.995C105.309 300.597 105.463 300.191 105.463 299.688C105.425 299.288 105.425 298.885 105.463 298.485V298.485C106.065 297.339 107.926 294.472 110.431 290.851C114.882 284.391 117.023 281.524 118.353 279.664C118.543 279.393 118.823 279.198 119.143 279.113C119.463 279.029 119.803 279.06 120.102 279.203C122.496 280 127.352 282.083 129.899 283.118H130.011C131.383 283.859 130.627 287.089 130.613 287.145Z" fill="#37474F"/>
<path d="M130.753 286.893L129.353 289.298L124.007 297.283L118.409 305.071C118.241 305.314 118 305.498 117.721 305.596C117.442 305.694 117.139 305.701 116.855 305.616L116.492 305.491C114.644 304.805 111.873 303.645 108.192 301.953C105.239 300.555 105.393 300.149 105.393 299.646C105.355 299.246 105.355 298.843 105.393 298.443V298.443C108.192 299.674 117.051 303.869 117.345 303.715C118.045 303.379 124.049 293.759 127.24 288.851C128.836 286.404 129.549 285.369 130.039 284.53C130.129 284.43 130.196 284.312 130.235 284.183C130.275 284.055 130.285 283.919 130.267 283.786C130.248 283.652 130.201 283.525 130.127 283.412C130.054 283.299 129.957 283.204 129.843 283.132H129.731C130.046 283.298 130.317 283.534 130.523 283.823C130.73 284.112 130.866 284.445 130.921 284.796C131.073 285.131 131.138 285.5 131.109 285.866C131.079 286.233 130.957 286.587 130.753 286.893V286.893Z" fill="#37474F"/>
<path opacity="0.1" d="M130.753 286.893L129.353 289.298L124.007 297.283L118.409 305.071C118.241 305.314 118 305.498 117.721 305.596C117.442 305.694 117.139 305.701 116.855 305.616L116.492 305.491C114.644 304.805 111.873 303.645 108.192 301.953C105.239 300.555 105.393 300.149 105.393 299.646C105.355 299.246 105.355 298.843 105.393 298.443V298.443C108.192 299.674 117.051 303.869 117.345 303.715C118.045 303.379 124.049 293.759 127.24 288.851C128.836 286.404 129.549 285.369 130.039 284.53C130.129 284.43 130.196 284.312 130.235 284.183C130.275 284.055 130.285 283.919 130.267 283.786C130.248 283.652 130.201 283.525 130.127 283.412C130.054 283.299 129.957 283.204 129.843 283.132H129.731C130.046 283.298 130.317 283.534 130.523 283.823C130.73 284.112 130.866 284.445 130.921 284.796C131.073 285.131 131.138 285.5 131.109 285.866C131.079 286.233 130.957 286.587 130.753 286.893V286.893Z" fill="black"/>
<path d="M118.423 281.496L128.248 285.607L117.779 301.156L108.01 296.667L118.423 281.496Z" fill="#FAFAFA"/>
<path d="M115.666 335.679C118.353 334.91 122.412 324.927 125.463 313.601C128.514 302.274 130.123 299.772 130.221 296.206C130.319 292.64 130.067 287.956 130.067 287.956L124.749 295.717C124.518 294.219 124.045 292.77 123.349 291.424C122.663 290.026 121.376 288.921 120.326 289.76C119.766 290.207 121.25 292.123 120.928 296.402C120.902 298.107 121.071 299.81 121.432 301.477L111.551 325.388L115.666 335.679Z" fill="#FFA8A7"/>
<path d="M75.9045 286.096C72.7835 285.216 70.1384 286.879 68.6688 291.843C66.0928 301.189 64.2215 310.715 63.0706 320.34C62.6508 323.794 62.1749 327.989 65.4779 328.311C67.9971 328.562 75.2747 327.164 76.5483 325.906C78.2558 324.256 77.9479 317.6 77.9479 317.6H74.1691C74.1691 317.6 74.9808 312.356 75.2187 310.762C76.0585 305.407 77.3041 298.653 77.3041 298.653L75.9045 286.096Z" fill="#F28F8F"/>
<path d="M94.2247 281.188L92.9511 292.389L81.8947 293.675L83.4901 278.811L94.2247 281.188Z" fill="#FFA8A7"/>
<path d="M70.5583 264.843C71.4681 254.495 77.0803 250.244 81.4189 249.21C90.18 247.154 98.8293 250.091 102.412 256.201C103.232 258.114 103.655 260.174 103.655 262.256C103.655 264.337 103.232 266.397 102.412 268.31C100.509 272.645 70.6003 264.815 70.6003 264.815" fill="#263238"/>
<path d="M102.958 270.408C102.958 270.408 104.539 274.673 104.119 274.994C103.459 275.232 102.764 275.355 102.062 275.358L102.958 270.408Z" fill="#FFA8A7"/>
<path d="M98.2412 256.928C100.327 258.718 103.839 261.962 102.902 270.911C101.866 280.168 99.6268 282.671 98.1153 283.566C97.1076 284.167 92.643 283.118 90.5717 281.902C87.9965 280.378 82.2864 276.448 80.5509 271.149C78.4936 264.912 79.5293 257.474 84.0358 255.53C86.3289 254.544 88.8346 254.156 91.3189 254.4C93.8031 254.645 96.1848 255.514 98.2412 256.928Z" fill="#FFA8A7"/>
<path d="M100.816 257.166C100.861 259.641 100.347 262.094 99.3125 264.343C98.2779 266.591 96.7493 268.578 94.8404 270.156C94.8404 270.156 93.5388 266.786 90.6417 267.555C87.7447 268.324 87.8426 272.142 89.914 274.211C90.451 274.803 91.1459 275.229 91.9169 275.439C92.6879 275.65 93.5031 275.636 94.2666 275.4C93.8536 278.045 92.6142 280.492 90.7257 282.391C87.7119 283.083 84.5638 282.913 81.6426 281.899C78.7215 280.885 76.1457 279.068 74.211 276.658C67.8151 268.981 69.7045 256.788 79.6973 253.195C83.2305 251.778 87.0952 251.4 90.8366 252.103C94.5779 252.807 98.0404 254.563 100.816 257.166V257.166Z" fill="#263238"/>
<path d="M80.565 449.696L85.3374 456.323C83.1635 457.306 80.795 457.784 78.4097 457.722C74.141 457.89 72.9654 456.491 72.8115 456.156C72.0837 454.604 73.2173 451.821 73.5252 449.43L80.565 449.696Z" fill="#263238"/>
<path d="M85.0435 453.122C85.0435 453.122 90.8236 452.744 94.8404 452.241C98.8571 451.737 102.006 453.639 101.068 455.331C100.131 457.023 97.9194 458.351 94.4905 459.526C91.5654 460.518 88.0385 461.232 84.9735 462.14C81.9085 463.049 79.8232 464.168 78.0458 463.539C76.0584 462.854 75.2466 462.057 75.3726 460.616C75.8061 458.563 76.3433 456.533 76.9821 454.534L85.0435 453.122Z" fill="#263238"/>
<path d="M72.8115 443.012C72.8115 443.012 73.5253 449.025 73.5813 450.325C73.6373 451.625 79.4594 452.031 80.579 449.668L80.761 442.313L72.8115 443.012Z" fill="#F28F8F"/>
<path d="M78.6756 446.717L76.6463 455.848C76.6463 455.848 76.4363 456.953 81.2088 457.666C85.9813 458.379 93.4269 455.177 94.7005 454.534C95.9741 453.89 96.1 452.59 91.4395 452.842C86.779 453.093 85.1136 453.121 85.1136 453.121L86.6391 449.066L78.6756 446.717Z" fill="#FFA8A7"/>
<path d="M72.8114 324.479C68.8227 330.674 65.0439 336.127 64.2321 343.091C62.5247 357.801 68.1229 374.608 69.3125 385.487C67.0495 388.582 65.741 392.271 65.5477 396.1C65.5477 400.602 72.8114 443.012 72.8114 443.012C72.8114 443.012 78.0877 444.62 80.7468 442.313L85.7432 364.289L83.1121 354.794L72.8114 324.479Z" fill="#455A64"/>
<path d="M85.7434 364.288L83.1122 354.794C78.1601 353.507 73.3812 351.63 68.8788 349.201C68.8788 349.201 71.5799 354.095 79.2914 356.78L83.3082 368.987L83.658 396.952L85.7434 364.288Z" fill="#37474F"/>
<path d="M72.8115 324.479C70.6842 327.947 65.5758 333.904 66.6675 339.609C67.9831 346.6 71.7059 351.396 83.1122 354.794L93.8048 393.485C93.8048 393.485 88.2066 398.7 86.5411 403.65C84.8756 408.6 78.6756 446.717 78.6756 446.717C78.6756 446.717 80.579 449.822 86.5971 449.066C86.5971 449.066 107.59 401.259 108.99 398.183C110.781 395.034 111.41 391.358 110.767 387.794C110.096 382.788 102.958 327.947 102.958 327.947L72.8115 324.479Z" fill="#455A64"/>
<path d="M70.8662 289.564C71.2952 288.424 72.1036 287.465 73.1559 286.849C74.2082 286.233 75.4406 285.997 76.6463 286.18C84.1059 288.208 95.7082 290.879 97.9055 291.522C97.9055 291.522 96.9118 305.882 105.505 310.944C105.099 314.146 102.916 327.947 102.916 327.947C102.916 327.947 92.5872 332.953 84.0919 330.492C75.5966 328.031 72.7416 324.479 72.7416 324.479L76.9402 317.558C76.0305 315.307 72.5176 307.658 70.2504 300.555C69.4637 296.902 69.6764 293.106 70.8662 289.564Z" fill="#FFB900"/>
<path d="M75.9044 314.831C79.4378 316.955 83.1405 318.783 86.9749 320.298C83.4899 320.208 80.0831 319.247 77.066 317.502L75.9044 314.831Z" fill="#E0E0E0"/>
<path d="M105.323 309.867C102.27 308.469 99.7588 306.112 98.1714 303.155C98.4288 305.427 99.2083 307.609 100.449 309.53C101.689 311.451 103.358 313.059 105.323 314.23V309.867Z" fill="#E0E0E0"/>
<path d="M97.9754 291.522C102.664 292.92 105.575 293.367 108.108 295.633C111.439 298.625 114.882 315.544 115.582 319.04C116.799 325.095 118.143 331.387 116.827 334.211C115.876 336.253 110.697 337.777 108.43 331.177C107.954 329.779 107.856 329.136 107.436 327.877C105.295 321.557 102.076 309.476 102.076 309.476C102.076 309.476 95.7361 305.98 97.9754 291.522Z" fill="#FFA8A7"/>
<path d="M75.2467 253.195C73.5813 254.16 70.5722 255.097 68.6968 263.836C67.17 271.167 66.2618 278.613 65.9817 286.096C66.0517 288.809 71.6779 296.346 83.546 295.633C95.4142 294.92 99.7248 287.97 99.7248 287.97C99.7248 287.97 93.8887 285.593 94.3506 275.386C94.3506 275.386 92.2932 279.427 86.6531 277.399C81.0129 275.372 75.2467 253.195 75.2467 253.195Z" fill="#263238"/>
</svg>
